<svg width="20" height="19" viewBox="0 0 20 19" fill="none" xmlns="http://www.w3.org/2000/svg">
<path d="M2 16V2V13.35V11.225V16ZM2 18C1.45 18 0.979167 17.8042 0.5875 17.4125C0.195833 17.0208 0 16.55 0 16V2C0 1.45 0.195833 0.979167 0.5875 0.5875C0.979167 0.195833 1.45 0 2 0H16C16.55 0 17.0208 0.195833 17.4125 0.5875C17.8042 0.979167 18 1.45 18 2V10H16V2H2V16H9V18H2ZM14.35 19L10.8 15.45L12.225 14.05L14.35 16.175L18.6 11.925L20 13.35L14.35 19ZM5 10C5.28333 10 5.52083 9.90417 5.7125 9.7125C5.90417 9.52083 6 9.28333 6 9C6 8.71667 5.90417 8.47917 5.7125 8.2875C5.52083 8.09583 5.28333 8 5 8C4.71667 8 4.47917 8.09583 4.2875 8.2875C4.09583 8.47917 4 8.71667 4 9C4 9.28333 4.09583 9.52083 4.2875 9.7125C4.47917 9.90417 4.71667 10 5 10ZM5 6C5.28333 6 5.52083 5.90417 5.7125 5.7125C5.90417 5.52083 6 5.28333 6 5C6 4.71667 5.90417 4.47917 5.7125 4.2875C5.52083 4.09583 5.28333 4 5 4C4.71667 4 4.47917 4.09583 4.2875 4.2875C4.09583 4.47917 4 4.71667 4 5C4 5.28333 4.09583 5.52083 4.2875 5.7125C4.47917 5.90417 4.71667 6 5 6ZM8 10H14V8H8V10ZM8 6H14V4H8V6Z" fill="#898989"/>
</svg>
