<svg width="32" height="32" viewBox="0 0 32 32" fill="none" xmlns="http://www.w3.org/2000/svg">
<path d="M16.0152 4C9.40739 4 4.02818 9.37405 4.02578 15.9813C4.02458 18.0933 4.57782 20.1551 5.62672 21.9719L4 28L10.2795 26.5164C12.0305 27.4716 14.0016 27.973 16.0082 27.9742H16.0129C22.6195 27.9742 27.9964 22.599 28 15.993C28.0024 12.7902 26.7568 9.77888 24.4934 7.51328C22.23 5.24888 19.2219 4.0012 16.0152 4ZM16.0129 6.4C18.5763 6.4012 20.9854 7.40056 22.7964 9.21016C24.6073 11.0222 25.6022 13.4298 25.5998 15.9906C25.5974 21.2754 21.2983 25.5742 16.0105 25.5742C14.4108 25.573 12.8261 25.1714 11.4304 24.4094L10.6217 23.9688L9.72868 24.1797L7.36595 24.7375L7.94257 22.5953L8.20275 21.6344L7.70583 20.7719C6.86815 19.3223 6.42482 17.6649 6.42602 15.9813C6.42842 10.6989 10.7288 6.4 16.0129 6.4ZM11.7726 10.45C11.5722 10.45 11.2482 10.525 10.9733 10.825C10.6985 11.1238 9.92323 11.8475 9.92323 13.3211C9.92323 14.7947 10.9968 16.2191 11.1468 16.4195C11.2956 16.6187 13.219 19.7383 16.2637 20.9383C18.7935 21.9355 19.3074 21.7387 19.857 21.6883C20.4067 21.6391 21.6302 20.9652 21.8799 20.2656C22.1295 19.566 22.1301 18.9642 22.0557 18.8406C21.9813 18.7158 21.7814 18.6414 21.4814 18.4914C21.1826 18.3414 19.7099 17.6184 19.4351 17.5188C19.1603 17.4192 18.9593 17.3688 18.76 17.6688C18.5608 17.9688 17.9883 18.6414 17.8131 18.8406C17.6378 19.041 17.4638 19.068 17.1638 18.918C16.8638 18.7668 15.8991 18.4497 14.7542 17.4297C13.8637 16.6365 13.2628 15.6578 13.0876 15.3578C12.9136 15.059 13.0712 14.8949 13.2212 14.7461C13.3556 14.6117 13.5189 14.3963 13.6689 14.2211C13.8177 14.0459 13.8693 13.9211 13.9689 13.7219C14.0686 13.5227 14.0176 13.3469 13.9432 13.1969C13.8687 13.0469 13.2861 11.5678 13.0196 10.975C12.7952 10.477 12.5582 10.4654 12.3446 10.457C12.1705 10.4498 11.9719 10.45 11.7726 10.45Z" fill="#0652FF"/>
</svg>
