<svg width="23" height="19" viewBox="0 0 23 19" fill="none" xmlns="http://www.w3.org/2000/svg">
<path d="M2.3 19C1.6675 19 1.12604 18.7674 0.675625 18.3023C0.225208 17.8372 0 17.2781 0 16.625V2.375C0 1.72187 0.225208 1.16276 0.675625 0.697656C1.12604 0.232552 1.6675 0 2.3 0H20.7C21.3325 0 21.874 0.232552 22.3244 0.697656C22.7748 1.16276 23 1.72187 23 2.375V16.625C23 17.2781 22.7748 17.8372 22.3244 18.3023C21.874 18.7674 21.3325 19 20.7 19H2.3ZM11.5 10.6875L2.3 4.75V16.625H20.7V4.75L11.5 10.6875ZM11.5 8.3125L20.7 2.375H2.3L11.5 8.3125ZM2.3 4.75V2.375V16.625V4.75Z" fill="#898989"/>
</svg>
