<svg width="21" height="21" viewBox="0 0 21 21" fill="none" xmlns="http://www.w3.org/2000/svg">
<path d="M18.6667 10.5C18.6667 8.225 17.8743 6.29514 16.2896 4.71042C14.7049 3.12569 12.775 2.33333 10.5 2.33333V0C11.9583 0 13.3243 0.277083 14.5979 0.83125C15.8715 1.38542 16.9799 2.13403 17.9229 3.07708C18.866 4.02014 19.6146 5.12847 20.1688 6.40208C20.7229 7.67569 21 9.04167 21 10.5H18.6667ZM14 10.5C14 9.52778 13.6597 8.70139 12.9792 8.02083C12.2986 7.34028 11.4722 7 10.5 7V4.66667C12.1139 4.66667 13.4896 5.23542 14.6271 6.37292C15.7646 7.51042 16.3333 8.88611 16.3333 10.5H14ZM19.775 21C17.3444 21 14.9431 20.4701 12.5708 19.4104C10.1986 18.3507 8.04028 16.8486 6.09583 14.9042C4.15139 12.9597 2.64931 10.8014 1.58958 8.42917C0.529861 6.05694 0 3.65556 0 1.225C0 0.875 0.116667 0.583333 0.35 0.35C0.583333 0.116667 0.875 0 1.225 0H5.95C6.22222 0 6.46528 0.0923611 6.67917 0.277083C6.89306 0.461806 7.01944 0.680556 7.05833 0.933333L7.81667 5.01667C7.85556 5.32778 7.84583 5.59028 7.7875 5.80417C7.72917 6.01806 7.62222 6.20278 7.46667 6.35833L4.6375 9.21667C5.02639 9.93611 5.48819 10.6313 6.02292 11.3021C6.55764 11.9729 7.14583 12.6194 7.7875 13.2417C8.39028 13.8444 9.02222 14.4035 9.68333 14.9187C10.3444 15.434 11.0444 15.9056 11.7833 16.3333L14.525 13.5917C14.7 13.4167 14.9285 13.2854 15.2104 13.1979C15.4924 13.1104 15.7694 13.0861 16.0417 13.125L20.0667 13.9417C20.3389 14.0194 20.5625 14.1604 20.7375 14.3646C20.9125 14.5688 21 14.7972 21 15.05V19.775C21 20.125 20.8833 20.4167 20.65 20.65C20.4167 20.8833 20.125 21 19.775 21ZM3.52917 7L5.45417 5.075L4.95833 2.33333H2.3625C2.45972 3.13056 2.59583 3.91806 2.77083 4.69583C2.94583 5.47361 3.19861 6.24167 3.52917 7ZM13.9708 17.4417C14.7292 17.7722 15.5021 18.0347 16.2896 18.2292C17.0771 18.4236 17.8694 18.55 18.6667 18.6083V16.0417L15.925 15.4875L13.9708 17.4417Z" fill="#898989"/>
</svg>
