<svg width="27" height="23" viewBox="0 0 27 23" fill="none" xmlns="http://www.w3.org/2000/svg">
<path d="M26.9721 1.43818C26.8372 0.909058 26.5675 0.512214 26.0955 0.247652C25.6235 -0.0169099 25.0166 -0.0830505 24.4097 0.115371L1.41603 7.52311C0.876592 7.72153 0.539441 7.91996 0.337151 8.3168C0.269721 8.44908 0.202291 8.58136 0.13486 8.71364L0 8.91206V9.63961V9.70575C0.269721 10.5656 0.876592 10.9624 1.48346 11.1608C2.56235 11.6238 3.64123 12.0868 4.72011 12.5498C5.32698 12.8144 6.00129 13.0789 6.67559 13.3435C6.81045 13.4096 6.81045 13.4096 6.81045 13.5419C7.28246 15.5923 7.68704 17.7088 8.15905 19.7591L8.22648 20.0898C8.29391 20.4867 8.42877 20.9496 8.4962 21.3465C8.56363 21.6772 8.83335 21.9418 9.10307 22.074C9.37279 22.2063 9.77738 22.1402 10.0471 21.9418C10.1145 21.8756 10.2494 21.8095 10.3168 21.7433L11.126 21.1481C12.2049 20.3544 13.2837 19.5607 14.3626 18.767C14.4301 18.7009 14.4301 18.7009 14.4301 18.7009C14.4301 18.7009 14.4301 18.7009 14.4975 18.767C15.1718 19.2961 15.8461 19.8253 16.453 20.3544C17.3296 21.0819 18.2061 21.8095 19.1502 22.537C19.5548 22.8677 19.9593 23 20.4313 23C20.6336 23 20.8359 23 20.9708 22.9339C21.5777 22.7354 22.0497 22.2063 22.1845 21.5449L24.2749 13.2773C25.1515 9.63961 26.028 6.00188 26.9046 2.36415C26.9721 2.09959 27.0395 1.76888 26.9721 1.43818ZM12.8117 17.3781L11.3283 18.5024L11.8677 16.5844L12.8117 17.3781ZM14.6323 10.0365L14.1603 10.4994C13.014 11.69 11.8677 12.8805 10.7214 14.071C10.5191 14.2694 10.3168 14.6002 10.2494 14.8647C10.0471 15.5261 9.84481 16.1875 9.64252 16.8489L9.57508 17.0473L8.83335 13.2112L14.6323 10.0365ZM20.6336 6.72943C20.9034 6.46486 21.0382 6.13416 21.0382 5.80346C21.0382 5.5389 20.9034 5.27433 20.6336 5.14205C20.0942 4.74521 19.5548 5.00977 19.3525 5.14205C18.1387 5.80346 16.925 6.46486 15.7112 7.12627L13.014 8.58136C11.2608 9.57347 9.44022 10.4994 7.68704 11.4915C7.55218 11.5577 7.55218 11.5577 7.48475 11.5577C6.20358 10.9624 4.85497 10.4333 3.5738 9.83803L2.42749 9.30891L24.8817 2.03345L20.3639 20.8174L12.8117 14.7986L20.6336 6.72943Z" fill="#898989"/>
</svg>
