<svg width="32" height="32" viewBox="0 0 32 32" fill="none" xmlns="http://www.w3.org/2000/svg">
<path d="M24.6667 16.5C24.6667 14.225 23.8743 12.2951 22.2896 10.7104C20.7049 9.12569 18.775 8.33333 16.5 8.33333V6C17.9583 6 19.3243 6.27708 20.5979 6.83125C21.8715 7.38542 22.9799 8.13403 23.9229 9.07708C24.866 10.0201 25.6146 11.1285 26.1688 12.4021C26.7229 13.6757 27 15.0417 27 16.5H24.6667ZM20 16.5C20 15.5278 19.6597 14.7014 18.9792 14.0208C18.2986 13.3403 17.4722 13 16.5 13V10.6667C18.1139 10.6667 19.4896 11.2354 20.6271 12.3729C21.7646 13.5104 22.3333 14.8861 22.3333 16.5H20ZM25.775 27C23.3444 27 20.9431 26.4701 18.5708 25.4104C16.1986 24.3507 14.0403 22.8486 12.0958 20.9042C10.1514 18.9597 8.64931 16.8014 7.58958 14.4292C6.52986 12.0569 6 9.65556 6 7.225C6 6.875 6.11667 6.58333 6.35 6.35C6.58333 6.11667 6.875 6 7.225 6H11.95C12.2222 6 12.4653 6.09236 12.6792 6.27708C12.8931 6.46181 13.0194 6.68056 13.0583 6.93333L13.8167 11.0167C13.8556 11.3278 13.8458 11.5903 13.7875 11.8042C13.7292 12.0181 13.6222 12.2028 13.4667 12.3583L10.6375 15.2167C11.0264 15.9361 11.4882 16.6313 12.0229 17.3021C12.5576 17.9729 13.1458 18.6194 13.7875 19.2417C14.3903 19.8444 15.0222 20.4035 15.6833 20.9187C16.3444 21.434 17.0444 21.9056 17.7833 22.3333L20.525 19.5917C20.7 19.4167 20.9285 19.2854 21.2104 19.1979C21.4924 19.1104 21.7694 19.0861 22.0417 19.125L26.0667 19.9417C26.3389 20.0194 26.5625 20.1604 26.7375 20.3646C26.9125 20.5688 27 20.7972 27 21.05V25.775C27 26.125 26.8833 26.4167 26.65 26.65C26.4167 26.8833 26.125 27 25.775 27ZM9.52917 13L11.4542 11.075L10.9583 8.33333H8.3625C8.45972 9.13056 8.59583 9.91806 8.77083 10.6958C8.94583 11.4736 9.19861 12.2417 9.52917 13ZM19.9708 23.4417C20.7292 23.7722 21.5021 24.0347 22.2896 24.2292C23.0771 24.4236 23.8694 24.55 24.6667 24.6083V22.0417L21.925 21.4875L19.9708 23.4417Z" fill="#0652FF"/>
</svg>
