<svg width="32" height="32" viewBox="0 0 32 32" fill="none" xmlns="http://www.w3.org/2000/svg">
<path d="M27.9721 8.43818C27.8372 7.90906 27.5675 7.51221 27.0955 7.24765C26.6235 6.98309 26.0166 6.91695 25.4097 7.11537L2.41603 14.5231C1.87659 14.7215 1.53944 14.92 1.33715 15.3168C1.26972 15.4491 1.20229 15.5814 1.13486 15.7136L1 15.9121V16.6396V16.7057C1.26972 17.5656 1.87659 17.9624 2.48346 18.1608C3.56235 18.6238 4.64123 19.0868 5.72011 19.5498C6.32698 19.8144 7.00129 20.0789 7.67559 20.3435C7.81045 20.4096 7.81045 20.4096 7.81045 20.5419C8.28246 22.5923 8.68704 24.7088 9.15905 26.7591L9.22648 27.0898C9.29391 27.4867 9.42877 27.9496 9.4962 28.3465C9.56363 28.6772 9.83335 28.9418 10.1031 29.074C10.3728 29.2063 10.7774 29.1402 11.0471 28.9418C11.1145 28.8756 11.2494 28.8095 11.3168 28.7433L12.126 28.1481C13.2049 27.3544 14.2837 26.5607 15.3626 25.767C15.4301 25.7009 15.4301 25.7009 15.4301 25.7009C15.4301 25.7009 15.4301 25.7009 15.4975 25.767C16.1718 26.2961 16.8461 26.8253 17.453 27.3544C18.3296 28.0819 19.2061 28.8095 20.1502 29.537C20.5548 29.8677 20.9593 30 21.4313 30C21.6336 30 21.8359 30 21.9708 29.9339C22.5777 29.7354 23.0497 29.2063 23.1845 28.5449L25.2749 20.2773C26.1515 16.6396 27.028 13.0019 27.9046 9.36415C27.9721 9.09959 28.0395 8.76888 27.9721 8.43818ZM13.8117 24.3781L12.3283 25.5024L12.8677 23.5844L13.8117 24.3781ZM15.6323 17.0365L15.1603 17.4994C14.014 18.69 12.8677 19.8805 11.7214 21.071C11.5191 21.2694 11.3168 21.6002 11.2494 21.8647C11.0471 22.5261 10.8448 23.1875 10.6425 23.8489L10.5751 24.0473L9.83335 20.2112L15.6323 17.0365ZM21.6336 13.7294C21.9034 13.4649 22.0382 13.1342 22.0382 12.8035C22.0382 12.5389 21.9034 12.2743 21.6336 12.1421C21.0942 11.7452 20.5548 12.0098 20.3525 12.1421C19.1387 12.8035 17.925 13.4649 16.7112 14.1263L14.014 15.5814C12.2608 16.5735 10.4402 17.4994 8.68704 18.4915C8.55218 18.5577 8.55218 18.5577 8.48475 18.5577C7.20358 17.9624 5.85497 17.4333 4.5738 16.838L3.42749 16.3089L25.8817 9.03345L21.3639 27.8174L13.8117 21.7986L21.6336 13.7294Z" fill="#0652FF"/>
</svg>
