<svg width="161" height="41" viewBox="0 0 161 41" fill="none" xmlns="http://www.w3.org/2000/svg">
<g clip-path="url(#clip0_9_196)">
<path d="M54.0933 1.33875H46.3578C45.4117 1.33875 44.6882 2.06392 44.6882 3.01221V23.2612C44.6882 24.8231 42.7961 25.5483 41.7943 24.3768L21.4259 1.89657C21.0919 1.56187 20.6467 1.33875 20.2015 1.33875H1.66955C0.723471 1.33875 0 2.06392 0 3.01221V37.8762C0 38.8245 0.723471 39.5496 1.66955 39.5496H9.46077C10.4068 39.5496 11.1303 38.8245 11.1303 37.8762V17.6272C11.1303 16.0653 13.0225 15.3401 14.0242 16.5115L34.337 39.0476C34.6709 39.3823 35.1161 39.6054 35.5614 39.6054H54.0377C54.9838 39.6054 55.7072 38.8802 55.7072 37.9319V3.068C55.7629 2.1197 55.0394 1.33875 54.0933 1.33875Z" fill="#0652FF"/>
<path d="M122.823 21.8667C121.877 21.2531 121.877 19.8027 122.767 19.1333C125.16 17.4041 126.774 14.5592 126.941 11.8816C127.442 1.22721 115.421 0 100.006 0C86.5938 0 74.6844 0.669388 73.4044 11.1565C73.2931 12.1605 74.0722 13.0531 75.074 13.0531H89.3208C90.0999 13.0531 90.8234 12.551 90.9903 11.8259C91.7694 8.70204 95.5538 8.42313 100.006 8.42313C105.682 8.42313 109.3 8.75782 109.3 12.8299C109.3 15.3401 107.63 16.5673 105.571 16.5673H95.4425C94.6077 16.5673 93.9399 17.181 93.7729 17.9619L92.9938 22.5361C92.8268 23.5401 93.606 24.4884 94.6633 24.4884H106.016C108.075 24.4884 109.745 25.7156 109.745 28.2816C109.745 32.3537 105.682 32.6884 100.006 32.6884C95.4981 32.6884 91.3799 32.4095 90.5451 29.2299C90.3782 28.5048 89.7103 28.0027 88.9312 28.0027H74.5731C73.5714 28.0027 72.7923 28.8395 72.9036 29.8435C74.1835 40.3864 86.5382 41.0558 99.9502 41.0558C115.366 41.0558 127.832 39.8286 127.386 29.2299C127.275 26.4408 125.383 23.5959 122.823 21.8667Z" fill="#0652FF"/>
<path d="M159.33 1.33875H134.12C133.286 1.33875 132.618 1.95235 132.451 2.7333L131.56 8.19997C131.393 9.20405 132.172 10.1524 133.23 10.1524H141.689C142.635 10.1524 143.358 10.8775 143.358 11.8258V37.8204C143.358 38.7687 144.082 39.4939 145.028 39.4939H159.33C160.277 39.4939 161 38.7687 161 37.8204V3.068C161 2.1197 160.221 1.33875 159.33 1.33875Z" fill="#0652FF"/>
<path d="M64.8341 24.8789C67.2929 24.8789 69.2862 22.8809 69.2862 20.4163C69.2862 17.9517 67.2929 15.9537 64.8341 15.9537C62.3752 15.9537 60.382 17.9517 60.382 20.4163C60.382 22.8809 62.3752 24.8789 64.8341 24.8789Z" fill="#25FF08"/>
</g>
<defs>
<clipPath id="clip0_9_196">
<rect width="161" height="41" fill="white"/>
</clipPath>
</defs>
</svg>
